<svg width="300" height="69" viewBox="0 0 300 69" fill="none" xmlns="http://www.w3.org/2000/svg">
<path fill-rule="evenodd" clip-rule="evenodd" d="M25.7924 35.7438C25.8098 35.4401 25.8273 35.1365 25.8491 34.8334L25.8409 34.8287V34.8252C25.8421 34.3149 25.8432 33.8058 25.8432 33.2967L25.8378 33.2037L25.831 33.0827L25.818 32.8435V32.8432V32.843V32.8428V32.8426C25.7997 32.5032 25.7815 32.1638 25.7531 31.8255C25.7145 31.3631 25.6595 30.9007 25.5999 30.4395C25.549 30.0395 25.4929 29.6404 25.4367 29.2411L25.4365 29.2396L25.4363 29.2379L25.436 29.2361L25.4358 29.2344L25.3864 28.882L25.3653 28.7301L25.3425 28.5642C25.2419 27.8251 25.1424 27.086 25.043 26.3469C25.0181 26.162 24.9927 25.9772 24.9673 25.7925C24.9068 25.3518 24.8462 24.9111 24.7926 24.4693C24.7373 24.0156 24.6946 23.5609 24.6518 23.1062L24.6335 22.9116C24.5875 22.4183 24.5434 21.925 24.4993 21.4317L24.4982 21.4201L24.4533 20.9185L24.4553 20.745L24.4563 20.6364L24.4573 20.5308L24.4592 20.358C24.458 20.0381 24.4568 19.717 24.4568 19.397L24.4554 19.2323C24.4544 19.1233 24.4533 19.0141 24.4533 18.9054C24.4592 18.8036 24.4663 18.7017 24.4734 18.5998C24.4878 18.3957 24.5021 18.1917 24.506 17.9877C24.5148 17.5022 24.519 17.0165 24.5232 16.5308C24.5324 15.4745 24.5415 14.418 24.5984 13.3638C24.637 12.669 24.809 11.9626 25.0348 11.3005C25.3284 10.4411 25.9076 9.81878 26.8693 9.65998C27.3361 9.58408 27.7643 9.59459 28.0462 10.0616C28.1151 10.1758 28.1956 10.2861 28.276 10.3961C28.4308 10.6078 28.5849 10.8187 28.6534 11.0553L28.6564 11.0656L28.6566 11.0664L28.6567 11.0666L28.6567 11.0668L28.6568 11.067L28.6568 11.0672L28.6569 11.0675C28.9787 12.1798 29.3034 13.3025 29.4818 14.4438C29.5982 15.1891 29.6304 15.9477 29.6627 16.7067V16.7071C29.6781 17.0693 29.6935 17.4317 29.7181 17.7927L29.7319 17.9984V17.9986C29.7629 18.4626 29.7938 18.9269 29.855 19.3877C29.9415 20.0442 30.0347 20.6999 30.1279 21.3557C30.2701 22.3573 30.4124 23.3589 30.5312 24.363C30.6564 25.4186 30.8167 26.4636 31.1805 27.4608C31.301 27.7901 31.5327 28.117 31.7994 28.3459C32.3762 28.841 33.0337 28.681 33.2899 27.9839C33.5286 27.3359 33.7497 26.668 33.8574 25.9896C33.9766 25.2374 34.058 24.4794 34.1393 23.7214L34.1393 23.7208L34.1394 23.7205L34.1394 23.7202L34.1395 23.7199L34.1395 23.7196L34.1396 23.7193L34.1396 23.719C34.1906 23.2435 34.2416 22.768 34.302 22.294C34.3757 21.7148 34.4774 21.1368 34.6073 20.567C34.7319 20.0225 34.8686 19.4805 35.0053 18.9385L35.0056 18.9374L35.0064 18.9342C35.1144 18.5059 35.2224 18.0776 35.3245 17.6479C35.4713 17.0308 35.6134 16.4125 35.7556 15.7942C35.8977 15.176 36.0399 14.5577 36.1867 13.9406C36.3144 13.404 36.4465 12.8685 36.5785 12.333L36.5792 12.3303C36.7457 11.6549 36.9122 10.9796 37.07 10.3022C37.108 10.1398 37.1409 9.97634 37.1738 9.81302L37.1738 9.81274C37.2735 9.31751 37.373 8.82335 37.6141 8.36155C38.2072 7.22426 39.4778 6.97905 40.3728 7.55353C41.6667 8.38373 42.3406 9.87249 41.9897 11.4033C41.9031 11.7797 41.801 12.1527 41.6988 12.526L41.6988 12.5261L41.6987 12.5262L41.6987 12.5263L41.6986 12.5264L41.6986 12.5265C41.5219 13.1719 41.345 13.8179 41.2479 14.4835C41.1837 14.9235 41.1093 15.362 41.0349 15.8005L41.0347 15.8016L41.0345 15.8027L41.0343 15.8038L41.0342 15.805C40.9556 16.2682 40.877 16.7313 40.8103 17.196C40.7497 17.6202 40.7019 18.0461 40.6542 18.4719C40.6043 18.9169 40.5544 19.3618 40.4898 19.8045C40.3828 20.5373 40.2587 21.2684 40.1346 21.9994L40.1344 22.0008C40.0808 22.3165 40.0272 22.6321 39.975 22.9478C39.9161 23.304 39.8591 23.6606 39.8022 24.0172L39.8021 24.0179C39.6704 24.843 39.5387 25.6681 39.3819 26.4882C39.2064 27.4044 39.209 28.3236 39.2116 29.2448L39.2122 29.503C39.2122 29.5446 39.2286 29.5862 39.246 29.6306C39.2546 29.6523 39.2634 29.6747 39.2707 29.698C39.287 29.6909 39.3023 29.6855 39.3161 29.6806C39.3428 29.6711 39.364 29.6636 39.3772 29.649C39.4708 29.5474 39.5644 29.4447 39.6486 29.3361C40.4734 28.2723 41.1064 27.0988 41.5638 25.8389C41.8383 25.0834 42.0979 24.3228 42.3574 23.5623L42.3576 23.5617L42.3582 23.5599C42.6427 22.7264 42.9271 21.8931 43.231 21.0668C43.9704 19.0561 44.7426 17.0559 45.5252 15.0604C45.8575 14.215 46.2319 13.3836 46.8449 12.6912C47.4662 11.9906 48.1787 11.91 48.9263 12.474L48.9895 12.5216C49.4347 12.8566 49.924 13.2246 49.9921 13.7841C50.0927 14.6026 50.1512 15.4702 49.9886 16.2689C49.7974 17.2073 49.5024 18.1255 49.2074 19.0435C49.1015 19.3728 48.9957 19.702 48.8947 20.0322C48.7893 20.3769 48.6721 20.7188 48.5549 21.0607L48.5548 21.061C48.3257 21.7289 48.0968 22.3963 47.9576 23.0821C47.6452 24.6304 47.2345 26.1425 46.6999 27.6243C46.5869 27.9369 46.4695 28.2481 46.3522 28.5594L46.352 28.5598C46.0937 29.2447 45.8354 29.9295 45.6247 30.6287C45.3369 31.5838 45.1283 32.5646 44.9204 33.5416L44.9052 33.6132C44.7788 34.2075 44.8759 34.2986 45.4937 34.2717C46.1149 34.2449 46.6496 33.9857 47.0719 33.5431C47.4603 33.1368 47.8312 32.7059 48.167 32.254L48.2314 32.1674L48.2317 32.167C49.0217 31.1044 49.8081 30.0467 50.7841 29.1329C51.3247 28.6273 51.7739 28.0143 52.2056 27.4083C52.47 27.0369 52.7144 26.6511 52.9587 26.2652C53.2322 25.8333 53.5057 25.4014 53.8073 24.9901C54.4789 24.0735 55.2896 23.346 56.5637 23.4698C56.7708 23.4896 56.9112 23.5363 57.0106 23.7173C57.3452 24.3257 57.5277 24.9831 57.5886 25.665C57.6974 26.8723 57.3838 27.9968 56.7368 29.0068C56.3581 29.5969 55.9553 30.1714 55.5524 30.7458C55.2347 31.1989 54.917 31.652 54.6111 32.1127C53.4973 33.7895 52.3905 35.4721 51.3095 37.1698C50.6987 38.1285 50.1091 39.1046 49.5744 40.1076C48.9918 41.2017 48.6291 42.3834 48.5145 43.6199C48.45 44.3129 48.4241 45.0097 48.3981 45.7066L48.3981 45.708V45.7082V45.7084C48.3887 45.9597 48.3794 46.2109 48.3682 46.462C48.3512 46.8321 48.3384 47.2028 48.3256 47.5735C48.3003 48.3022 48.2751 49.0312 48.2185 49.7571L48.2142 49.813C48.1524 50.6126 48.0893 51.4306 47.8675 52.194C47.5508 53.286 47.1637 54.3574 46.7766 55.4287C46.6674 55.7309 46.5583 56.033 46.4507 56.3357C45.9967 57.6166 45.6048 58.9103 45.668 60.287C45.7113 61.2316 45.792 62.1739 45.8762 63.1162C45.93 63.7129 46.0108 64.3084 46.0973 64.9027C46.198 65.5975 46.3126 66.2887 46.4308 66.98C46.5087 67.4357 46.5936 67.8902 46.6848 68.378C46.7223 68.5789 46.7609 68.7854 46.8005 69C47.2397 68.79 47.6754 68.5876 48.1071 68.3871L48.1084 68.3864L48.109 68.3862C49.0277 67.9594 49.9277 67.5414 50.8029 67.0769C56.6198 63.992 61.027 59.5093 64.0525 53.6699C65.6203 50.6422 66.7224 47.4475 67.4407 44.1232C67.7449 42.7162 67.9719 41.2905 68.1977 39.8683C68.2767 39.3743 68.3154 38.874 68.3542 38.3735V38.3732V38.373V38.3728V38.3725V38.3723V38.3721L68.3543 38.3712L68.3544 38.3703L68.3545 38.3693L68.3546 38.3684L68.3546 38.3675C68.3714 38.1507 68.3882 37.9339 68.4082 37.7175C68.4279 37.5056 68.4485 37.2938 68.4691 37.0819C68.5257 36.5008 68.5823 35.9193 68.62 35.3366C68.6534 34.82 68.6686 34.3016 68.6839 33.7831C68.6906 33.5564 68.6972 33.3296 68.7054 33.1029C68.7042 32.3615 68.7031 31.6212 68.7031 30.8797L68.6841 30.5432L68.6603 30.1179C68.6458 29.8576 68.6313 29.5973 68.6165 29.3372C68.603 29.0938 68.5906 28.8503 68.5783 28.6069L68.5782 28.6059L68.5781 28.6049L68.578 28.6024C68.5486 28.0254 68.5193 27.4486 68.4749 26.8723L68.4495 26.5369C68.3816 25.6383 68.3137 24.7389 68.193 23.8469L68.151 23.5345C68.0022 22.4228 67.8526 21.305 67.5787 20.2214C67.2207 18.8074 66.7902 17.3992 66.2509 16.0435C64.9042 12.6597 62.8253 9.77441 60.0583 7.39006C57.0188 4.76869 53.5043 3.03706 49.6856 1.88459C48.7695 1.60786 47.8417 1.36265 46.9081 1.14897C46.0271 0.948133 45.138 0.783494 44.2453 0.644543C43.5891 0.5423 42.9273 0.474318 42.2658 0.406372C42.1265 0.392066 41.9873 0.377762 41.8481 0.363139L41.6592 0.343176C40.771 0.24926 39.8826 0.15533 38.9922 0.0899091C38.4775 0.0522194 37.9616 0.037527 37.4458 0.0228363C37.2265 0.0165912 37.0072 0.0103464 36.7881 0.0023353C36.7635 0.00116765 36.7389 0 36.7144 0H35.0542C35.0296 0.00116765 35.0051 0.0023353 34.9805 0.0023353C34.8034 0.0103411 34.6262 0.0181562 34.4491 0.0259714C34.0061 0.0455126 33.5632 0.0650537 33.1203 0.0875738C32.8823 0.0995924 32.6441 0.109641 32.4058 0.119691C31.7643 0.146744 31.1225 0.173813 30.4844 0.239368C30.2441 0.264074 30.0002 0.288193 29.7543 0.312516C28.7218 0.414649 27.6529 0.520386 26.6532 0.68825C25.1533 0.940463 24.0153 1.20213 22.5422 1.61323C21.4116 2.02434 18.0684 3.64322 16.9238 4.25115C13.8074 6.10305 12.9576 7.03478 10.7645 9.43945C10.5806 9.64108 10.3872 9.85307 10.1823 10.0768C7.37677 13.1407 5.11409 16.5643 3.39778 20.3475C2.47353 22.3862 1.73294 24.4938 1.162 26.6528C0.80751 27.9956 0.568848 29.3711 0.333694 30.7419C0.221802 31.3929 0.191284 31.7371 0.152405 32.1763L0.152359 32.1766C0.13147 32.4124 0.108154 32.6756 0.068512 33.0284C0.0275726 33.3915 0 34.0904 0 34.7413C0.034256 35.2552 0.034256 35.4265 0.034256 35.632C0.034256 35.8376 0.034256 36.0774 0.068512 36.7283C0.107971 37.4779 0.252243 38.2861 0.378876 38.9954C0.41481 39.1967 0.449326 39.39 0.479614 39.5718C0.685165 40.8051 1.04678 41.8685 1.30183 42.5842C1.75209 44.0434 1.8179 44.1939 2.07207 44.775C2.18318 45.0291 2.33029 45.3655 2.56126 45.9296C3.16028 47.3926 3.87512 48.8125 4.60516 50.2172C6.03017 52.9611 7.79678 55.4704 9.95183 57.6983C12.5514 60.3862 15.5933 62.4658 18.909 64.1659C21.8806 65.6897 24.9798 66.9076 28.1387 67.9818C28.7415 68.1865 29.3464 68.3871 29.9677 68.5931C30.2821 68.6973 30.6008 68.803 30.9255 68.9113C30.9099 68.8398 30.8958 68.7774 30.8831 68.7208C30.8725 68.6739 30.8628 68.6309 30.8539 68.59C30.8436 68.5431 30.8344 68.499 30.826 68.4547C30.7618 68.1116 30.7005 67.7677 30.6393 67.4238L30.6391 67.4228L30.6389 67.4217L30.6386 67.4203L30.6382 67.4183L30.6379 67.4164L30.6378 67.4161C30.5008 66.6471 30.3636 65.8779 30.1943 65.1164C30.0327 64.3886 29.8375 63.6684 29.6422 62.948C29.5505 62.6097 29.4588 62.2714 29.3706 61.9322C29.0582 60.7307 28.6452 59.5595 28.0041 58.4982C27.5406 57.7309 27.0372 56.9878 26.5338 56.2447L26.5336 56.2444C26.2557 55.8341 25.9777 55.4237 25.7063 55.0092C24.1199 52.5828 22.241 50.404 20.0941 48.4599C18.9818 47.4522 17.7223 46.6428 16.4633 45.8338C16.0431 45.5637 15.623 45.2937 15.2084 45.0164C14.9158 44.8209 14.613 44.6401 14.3101 44.4593L14.31 44.4593C13.5858 44.027 12.8614 43.5946 12.2765 42.959C12.1139 42.7827 11.8588 42.6648 11.6237 42.5842C11.1592 42.4247 10.6906 42.2766 10.222 42.1286L10.2218 42.1285L10.2216 42.1285L10.2214 42.1284L10.2213 42.1283L10.2211 42.1283L10.2209 42.1282C9.86 42.0142 9.49905 41.9002 9.13988 41.7809C8.57947 41.5952 8.15712 41.2333 8.10916 40.6261C8.06003 40.0096 8.09512 39.3907 8.68594 38.9645C10.3075 37.7934 12.1268 37.4361 14.0759 37.6754C15.4365 37.8424 16.6474 38.4181 17.7881 39.1595C18.7826 39.8064 19.7841 40.4404 20.7937 41.0616C21.7344 41.6408 22.7394 41.7774 23.7853 41.3874C23.99 41.3103 24.1971 41.1725 24.3398 41.0079C25.1342 40.0925 25.4677 38.9727 25.6221 37.8097C25.7131 37.1255 25.7528 36.4351 25.7924 35.7447V35.7446V35.7444V35.7443V35.7441V35.744V35.7438ZM97.5586 19.6846H91.6582V54H94.2202V26.1025H94.6084L108.842 54H110.032L124.11 25.8696H124.292V54H130.088V19.6846H124.292L111.197 46.0034H110.912L97.5586 19.6846ZM139.172 60.5991C138.93 60.4611 138.706 60.349 138.499 60.2627L136.299 65.1797C136.696 65.4902 137.188 65.7404 137.774 65.9302C138.361 66.12 138.965 66.2148 139.586 66.2148C140.414 66.2148 141.268 66.0596 142.148 65.749C143.028 65.4557 143.882 64.9985 144.71 64.3774C145.538 63.7563 146.314 62.9714 147.039 62.0225C147.781 61.0736 148.437 59.9521 149.006 58.6582L162.541 27.5H159.72L151.361 46.6504L141.165 27.5H135.187L148.721 52.7578L146.936 56.7432C146.729 57.2262 146.47 57.7438 146.159 58.2959C145.849 58.848 145.495 59.3569 145.098 59.8228C144.701 60.2886 144.261 60.6768 143.778 60.9873C143.295 61.2979 142.778 61.4531 142.226 61.4531C141.777 61.4531 141.372 61.41 141.009 61.3237C140.647 61.2375 140.311 61.1253 140 60.9873C139.707 60.8665 139.431 60.7371 139.172 60.5991ZM181.432 52.292C180.604 52.5163 179.767 52.6284 178.922 52.6284C177.8 52.6284 176.739 52.4645 175.739 52.1367C174.755 51.8089 173.858 51.3431 173.047 50.7393C172.236 50.1182 171.521 49.3677 170.899 48.4878C170.296 47.6079 169.812 46.6073 169.45 45.4858L166.371 46.7539C166.819 48.0306 167.397 49.1693 168.104 50.1699C168.812 51.1533 169.657 51.9901 170.641 52.6802C171.641 53.3703 172.789 53.8965 174.083 54.2588C175.376 54.6211 176.852 54.8022 178.508 54.8022C180.544 54.8022 182.329 54.5435 183.865 54.0259C185.4 53.5083 186.686 52.8096 187.721 51.9297C188.756 51.0326 189.532 49.9888 190.05 48.7983C190.567 47.5907 190.826 46.3053 190.826 44.9424C190.826 43.7347 190.55 42.6478 189.998 41.6816C189.446 40.6982 188.713 39.8011 187.798 38.9902C186.884 38.1621 185.84 37.403 184.667 36.7129C183.511 36.0228 182.329 35.3586 181.122 34.7202C179.914 34.0819 178.723 33.4521 177.55 32.8311C176.394 32.21 175.359 31.5716 174.445 30.916C173.53 30.2432 172.797 29.5358 172.245 28.7939C171.693 28.0348 171.417 27.2067 171.417 26.3096C171.417 25.6712 171.546 25.0501 171.805 24.4463C172.081 23.8252 172.487 23.2731 173.021 22.79C173.574 22.2897 174.255 21.8929 175.066 21.5996C175.877 21.2891 176.826 21.1338 177.913 21.1338C179.138 21.1338 180.233 21.3063 181.199 21.6514C182.183 21.9792 183.045 22.4536 183.787 23.0747C184.529 23.6958 185.167 24.4463 185.702 25.3262C186.237 26.1888 186.677 27.1463 187.022 28.1987L189.972 26.853C189.558 25.5591 189.015 24.4204 188.342 23.437C187.669 22.4536 186.849 21.6255 185.883 20.9526C184.917 20.2798 183.796 19.7708 182.519 19.4258C181.242 19.0807 179.793 18.9082 178.171 18.9082C176.377 18.9082 174.781 19.1411 173.384 19.6069C172.004 20.0728 170.839 20.7197 169.89 21.5479C168.941 22.3587 168.217 23.3249 167.716 24.4463C167.233 25.5677 166.992 26.784 166.992 28.0952C166.992 29.4064 167.259 30.571 167.794 31.5889C168.346 32.5895 169.062 33.5039 169.942 34.332C170.822 35.1429 171.822 35.8848 172.944 36.5576C174.083 37.2132 175.238 37.8429 176.412 38.4468C177.585 39.0506 178.732 39.6545 179.854 40.2583C180.992 40.8621 182.001 41.5091 182.881 42.1992C183.761 42.8721 184.469 43.6226 185.003 44.4507C185.556 45.2616 185.832 46.1932 185.832 47.2456C185.832 48.1255 185.633 48.9019 185.236 49.5747C184.84 50.2303 184.313 50.791 183.658 51.2568C183.002 51.7054 182.26 52.0505 181.432 52.292ZM205.914 18.4941H204.413L200.66 19.9692V27.5L196.054 28.7681V29.7515H200.66V48.4102C200.66 49.3245 200.764 50.1613 200.971 50.9204C201.178 51.6623 201.488 52.3092 201.902 52.8613C202.334 53.3962 202.877 53.8102 203.533 54.1035C204.188 54.4141 204.956 54.5693 205.836 54.5693C207.544 54.5693 208.976 54.2157 210.132 53.5083C211.288 52.8009 212.228 51.8348 212.953 50.6099L211.633 49.73C211.271 50.1613 210.848 50.5236 210.365 50.8169C209.882 51.1102 209.347 51.2568 208.76 51.2568C208.346 51.2568 207.967 51.1878 207.622 51.0498C207.277 50.8945 206.975 50.6875 206.716 50.4287C206.474 50.1699 206.276 49.868 206.121 49.5229C205.983 49.1779 205.914 48.807 205.914 48.4102V29.7515H211.814V27.5H205.914V18.4941ZM226.513 53.5083C228.221 54.2157 230.093 54.5693 232.129 54.5693C234.147 54.5693 236.002 54.1898 237.693 53.4307C239.401 52.6543 240.876 51.6105 242.118 50.2993C243.36 48.9709 244.327 47.4268 245.017 45.667C245.724 43.89 246.078 42.0008 246.078 39.9995C246.078 38.188 245.724 36.4972 245.017 34.9272C244.327 33.34 243.36 31.9598 242.118 30.7866C240.876 29.6134 239.401 28.6904 237.693 28.0176C236.002 27.3447 234.147 27.0083 232.129 27.0083C230.093 27.0083 228.221 27.3792 226.513 28.1211C224.805 28.8457 223.33 29.8464 222.088 31.123C220.846 32.3997 219.871 33.9007 219.164 35.626C218.473 37.334 218.128 39.1628 218.128 41.1123C218.128 42.9756 218.473 44.7267 219.164 46.3657C219.871 47.9875 220.846 49.4108 222.088 50.6357C223.33 51.8434 224.805 52.8009 226.513 53.5083ZM235.985 51.8262C235.122 52.361 234.173 52.6284 233.138 52.6284C231.689 52.6284 230.395 52.2661 229.256 51.5415C228.135 50.7996 227.177 49.799 226.384 48.5396C225.607 47.2801 225.012 45.805 224.598 44.1143C224.201 42.4235 224.003 40.612 224.003 38.6797C224.003 37.3512 224.193 36.1004 224.572 34.9272C224.952 33.7368 225.452 32.7017 226.073 31.8218C226.712 30.9419 227.445 30.2518 228.273 29.7515C229.101 29.2339 229.955 28.9751 230.835 28.9751C232.543 28.9751 233.992 29.3374 235.183 30.062C236.373 30.7694 237.339 31.7441 238.081 32.9863C238.823 34.2285 239.358 35.6864 239.686 37.3599C240.013 39.0334 240.177 40.8276 240.177 42.7427C240.177 44.0711 240.005 45.3306 239.66 46.521C239.315 47.7114 238.832 48.7638 238.21 49.6782C237.589 50.5754 236.848 51.2913 235.985 51.8262ZM258.111 27.0083H257.309L253.557 28.4575V54H258.81V35.5483C259.172 34.772 259.595 34.0991 260.078 33.5298C260.561 32.9432 261.087 32.4688 261.657 32.1064C262.226 31.7269 262.821 31.4422 263.442 31.2524C264.081 31.0627 264.728 30.9678 265.383 30.9678C265.797 30.9678 266.211 30.985 266.625 31.0195C267.04 31.054 267.445 31.1403 267.842 31.2783C268.239 31.3991 268.627 31.5802 269.006 31.8218C269.386 32.0461 269.748 32.348 270.093 32.7275L271.75 28.3022C271.094 27.8537 270.387 27.5259 269.627 27.3188C268.886 27.1118 268.126 27.0083 267.35 27.0083C266.487 27.0083 265.633 27.1463 264.788 27.4224C263.96 27.6812 263.166 28.0521 262.407 28.5352C261.665 29.0182 260.984 29.5876 260.363 30.2432C259.742 30.8988 259.224 31.6234 258.81 32.417L258.111 27.0083ZM276.227 60.5991C275.985 60.4611 275.761 60.349 275.554 60.2627L273.354 65.1797C273.751 65.4902 274.243 65.7404 274.829 65.9302C275.416 66.12 276.02 66.2148 276.641 66.2148C277.469 66.2148 278.323 66.0596 279.203 65.749C280.083 65.4557 280.937 64.9985 281.765 64.3774C282.593 63.7563 283.369 62.9714 284.094 62.0225C284.836 61.0736 285.491 59.9521 286.061 58.6582L299.595 27.5H296.774L288.416 46.6504L278.219 27.5H272.241L285.776 52.7578L283.99 56.7432C283.783 57.2262 283.524 57.7438 283.214 58.2959C282.903 58.848 282.55 59.3569 282.153 59.8228C281.756 60.2886 281.316 60.6768 280.833 60.9873C280.35 61.2979 279.832 61.4531 279.28 61.4531C278.832 61.4531 278.426 61.41 278.064 61.3237C277.702 61.2375 277.365 61.1253 277.055 60.9873C276.761 60.8665 276.485 60.7371 276.227 60.5991ZM68.7054 33.1035C68.7054 32.3817 68.7043 31.6609 68.7032 30.9391L68.7031 30.8803L68.7055 30.9388L68.7092 31.0218C68.7135 31.119 68.7182 31.2162 68.7229 31.3134C68.7383 31.6302 68.7537 31.9471 68.7569 32.264C68.7585 32.4579 68.7421 32.6524 68.7256 32.847C68.7211 32.9006 68.7166 32.9541 68.7124 33.0076C68.7099 33.0396 68.7076 33.0716 68.7054 33.1035ZM25.8531 33.3278C25.8519 33.8304 25.8508 34.3319 25.8508 34.8334C25.852 34.3219 25.8531 33.8117 25.8531 33.3014L25.8531 33.3245V33.3278ZM24.4634 19.0731C24.4644 19.1821 24.4655 19.2913 24.4655 19.4L24.464 19.2375C24.463 19.1277 24.4619 19.0178 24.4619 18.9084L24.4634 19.0731Z" fill="white"/>
</svg>
